<svg width="65" height="64" xmlns="http://www.w3.org/2000/svg" xmlns:xlink="http://www.w3.org/1999/xlink" xml:space="preserve" overflow="hidden"><g transform="translate(-604 -440)"><g><g><g><g><path d="M655.78 490.805C645.87 500.636 630.048 501.139 619.533 491.957L619.533 500 618.467 500 618.467 489.467 629 489.467 629 490.533 619.533 490.533 619.533 490.547C629.754 500.208 645.871 499.754 655.533 489.533 663.627 480.969 664.789 467.97 658.341 458.107L659.233 457.524C666.065 468.046 664.626 481.909 655.78 490.804ZM619.011 454.036C628.963 444.106 645.075 444.106 655.027 454.036 655.276 454.285 655.515 454.543 655.752 454.8L646.347 454.8 646.347 455.867 656.88 455.867 656.88 445.333 655.813 445.333 655.813 453.316 655.78 453.281C645.414 442.922 628.612 442.927 618.252 453.294 609.012 462.541 607.882 477.14 615.591 487.699L616.451 487.069C609.115 476.913 610.198 462.941 619.011 454.036Z" fill="#AAD04B" fill-rule="nonzero" fill-opacity="1"/></g></g></g></g></g></svg>