<svg width="66" height="64" xmlns="http://www.w3.org/2000/svg" xmlns:xlink="http://www.w3.org/1999/xlink" xml:space="preserve" overflow="hidden"><g transform="translate(-1138 -200)"><g><g><g><g><path d="M1168.92 200.573 1148.06 209.704C1145.07 211.014 1143.13 213.971 1143.13 217.237L1143.13 252.143 1168.91 263.427C1170.24 264.007 1171.75 264.007 1173.08 263.427L1193.94 254.299C1196.93 252.988 1198.87 250.031 1198.87 246.764L1198.87 211.859 1173.09 200.575C1171.76 199.994 1170.25 199.994 1168.92 200.575ZM1197.8 246.764C1197.8 249.608 1196.12 252.182 1193.51 253.323L1172.66 262.451C1171.6 262.912 1170.4 262.912 1169.34 262.451L1144.2 251.444 1144.2 217.237C1144.2 214.394 1145.88 211.819 1148.49 210.679L1169.34 201.551C1170.4 201.09 1171.6 201.09 1172.66 201.551L1197.8 212.556ZM1151.13 233.333C1151.13 244.305 1160.03 253.2 1171 253.2 1181.97 253.2 1190.87 244.305 1190.87 233.333 1190.87 222.361 1181.97 213.467 1171 213.467 1160.03 213.479 1151.15 222.366 1151.13 233.333ZM1152.2 233.333C1152.2 228.174 1154.33 223.243 1158.09 219.705L1158.41 220.199C1160.15 222.832 1160.95 224.033 1160.59 225.039 1160.42 225.714 1159.94 226.268 1159.29 226.532 1158.76 226.813 1158.27 227.151 1157.81 227.541 1157.25 228.129 1157.06 228.979 1157.31 229.751 1157.43 230.528 1157.44 230.844 1157.04 231.067L1156.91 231.139C1155.47 231.952 1153.28 233.183 1154.22 235.004 1154.84 236.213 1156.85 236.993 1158.46 237.619 1159 237.828 1159.49 238.015 1159.83 238.189 1160.56 238.486 1161.15 239.055 1161.46 239.776 1161.56 240.137 1161.49 240.523 1161.28 240.832 1160.41 242.247 1159.83 243.816 1159.56 245.453 1159.45 246.25 1159.26 247.035 1159.01 247.8 1154.7 244.234 1152.2 238.929 1152.2 233.333ZM1171 252.133C1167.01 252.132 1163.12 250.852 1159.91 248.48 1160.24 247.545 1160.48 246.579 1160.62 245.596 1160.87 244.104 1161.4 242.675 1162.19 241.384 1162.56 240.82 1162.66 240.127 1162.48 239.48 1162.09 238.468 1161.31 237.657 1160.31 237.235 1159.94 237.048 1159.42 236.848 1158.85 236.625 1157.48 236.092 1155.61 235.365 1155.17 234.516 1154.73 233.676 1155.89 232.94 1157.44 232.068L1157.56 231.996C1158.64 231.391 1158.48 230.351 1158.37 229.592 1158.27 228.917 1158.25 228.575 1158.51 228.349 1158.91 228.007 1159.35 227.71 1159.81 227.464 1160.69 227.073 1161.34 226.314 1161.6 225.393 1162.13 223.889 1161.25 222.548 1159.3 219.611L1158.89 218.979C1164.08 214.558 1171.27 213.326 1177.64 215.768 1175.37 218.388 1174.38 220.213 1174.47 221.608 1174.62 222.603 1175.19 223.486 1176.04 224.031 1176.8 224.684 1177.47 225.245 1177.36 226.412 1177.35 226.516 1177.3 226.613 1177.22 226.679 1176.77 227.049 1175.46 226.908 1174.67 226.823 1174.4 226.789 1174.13 226.768 1173.85 226.759 1172.17 227.071 1170.65 227.961 1169.55 229.276 1168.64 230.148 1168.13 231.353 1168.13 232.612 1168.45 235.816 1169.65 236.425 1171.91 236.472 1173.65 236.509 1174.09 236.905 1174.2 237.075 1174.31 237.318 1174.3 237.599 1174.16 237.829 1173.4 239.69 1173.29 241.754 1173.84 243.687 1173.93 244.448 1174.45 245.09 1175.17 245.34 1175.3 245.371 1175.42 245.386 1175.55 245.385 1176.45 245.254 1177.27 244.786 1177.85 244.076L1178.05 243.859C1179.17 242.653 1181.49 240.144 1181.45 238.353 1181.51 237.505 1181.92 236.721 1182.59 236.193 1182.99 235.787 1183.34 235.344 1183.66 234.869 1184.19 233.782 1184.27 232.533 1183.89 231.387 1184.8 231.299 1185.71 231.541 1186.46 232.071 1186.75 232.41 1186.89 232.858 1186.84 233.303 1186.75 235.406 1187.5 237.458 1188.92 239.011 1186.44 246.817 1179.19 252.122 1171 252.133ZM1189.8 233.333C1189.79 234.821 1189.61 236.302 1189.26 237.747 1188.32 236.479 1187.84 234.928 1187.9 233.351 1187.97 232.614 1187.73 231.881 1187.23 231.333 1186.25 230.313 1184.53 230.313 1183.15 230.317L1182.37 230.317 1182.66 231.049C1183.12 232.08 1183.15 233.248 1182.75 234.303 1182.48 234.72 1182.16 235.111 1181.81 235.469 1180.94 236.193 1180.42 237.251 1180.38 238.379 1180.41 239.737 1178.13 242.205 1177.27 243.133L1177.06 243.356C1176.47 244.004 1175.8 244.396 1175.43 244.305 1175.12 244.225 1174.95 243.719 1174.87 243.423 1174.38 241.711 1174.48 239.883 1175.15 238.233 1175.43 237.682 1175.41 237.023 1175.1 236.489 1174.64 235.796 1173.61 235.441 1171.93 235.407 1170.27 235.372 1169.46 235.233 1169.19 232.508 1169.22 231.549 1169.63 230.642 1170.34 229.993 1171.25 228.909 1172.48 228.149 1173.85 227.825 1174.02 227.825 1174.27 227.852 1174.56 227.884 1175.68 228.157 1176.86 228.023 1177.9 227.505 1178.2 227.259 1178.39 226.899 1178.42 226.511 1178.5 225.187 1177.85 223.924 1176.73 223.219 1176.02 222.616 1175.58 222.213 1175.54 221.536 1175.46 220.425 1176.5 218.669 1178.69 216.195 1185.44 219.224 1189.79 225.932 1189.8 233.333Z" fill="#AAD04B" fill-rule="nonzero" fill-opacity="1"/></g></g></g></g></g></svg>